<svg width="27" height="60" viewBox="0 0 27 60" fill="none" xmlns="http://www.w3.org/2000/svg">
<path fill-rule="evenodd" clip-rule="evenodd" d="M23.2554 31.9908C25.045 31.9908 26.2058 30.2014 25.3127 28.6507C24.5566 27.338 23.7118 26.0599 23.0459 25.4C20.5142 22.8907 17.0803 21.4811 13.4999 21.4811C9.91948 21.4811 6.48578 22.8907 3.95405 25.4C1.42232 27.909 2.51796e-06 31.3122 2.2065e-06 34.8607L5.8674e-07 57.5225C4.66643e-07 58.8908 1.11919 60 2.49979 60C3.88039 60 4.99958 58.8908 4.99958 57.5225L4.99958 34.8607C4.99958 32.6264 5.89518 30.4836 7.48929 28.9036C9.08345 27.3237 11.2455 26.4361 13.4999 26.4361C15.7545 26.4361 17.9166 27.3237 19.5107 28.9036C19.9734 29.3623 20.3773 29.8683 20.7175 30.4103C21.2806 31.3072 22.1964 31.9908 23.2554 31.9908ZM24.5002 53.797C25.8808 53.797 27 54.9162 27 56.2968L27 56.9501C27 58.3184 25.8808 59.4276 24.5002 59.4276C23.1196 59.4276 22.0004 58.3184 22.0004 56.9501L22.0004 56.2968C22.0004 54.9162 23.1196 53.797 24.5002 53.797Z" fill="url(#paint0_linear_6_894)"/>
<path d="M2.50826 42.8377L2.53711 3" stroke="#0047FF" stroke-width="5" stroke-linecap="round"/>
<defs>
<linearGradient id="paint0_linear_6_894" x1="26.1476" y1="21.5183" x2="0.297021" y2="56.0152" gradientUnits="userSpaceOnUse">
<stop stop-color="#0047FF"/>
<stop offset="1" stop-color="#0047FF"/>
</linearGradient>
</defs>
</svg>
